<svg xmlns="http://www.w3.org/2000/svg" version="1.1" xmlns:xlink="http://www.w3.org/1999/xlink" xmlns:svgjs="http://svgjs.dev/svgjs" width="2000" height="338" viewBox="0 0 2000 338"><g transform="matrix(1,0,0,1,-1.2121212121212466,-1.6973768988425206)"><svg viewBox="0 0 396 67" data-background-color="#000000" preserveAspectRatio="xMidYMid meet" height="338" width="2000" xmlns="http://www.w3.org/2000/svg" xmlns:xlink="http://www.w3.org/1999/xlink"><g id="tight-bounds" transform="matrix(1,0,0,1,0.2400000000000091,0.33646228468180084)"><svg viewBox="0 0 395.52 66.32707543063638" height="66.32707543063638" width="395.52"><g><svg viewBox="0 0 492.37512427528554 82.56928096676737" height="66.32707543063638" width="395.52"><g transform="matrix(1,0,0,1,0,11.411528700906349)"><svg viewBox="0 0 395.52 59.74622356495467" height="59.74622356495467" width="395.52"><g id="textblocktransform"><svg viewBox="0 0 395.52 59.74622356495467" height="59.74622356495467" width="395.52" id="textblock"><g><svg viewBox="0 0 395.52 59.74622356495467" height="59.74622356495467" width="395.52"><g transform="matrix(1,0,0,1,0,0)"><svg width="395.52" viewBox="-7.5 -23.5 99.3 15" height="59.74622356495467" data-palette-color="#ffffff"><path d="M-7.5-15.95L-7.5-16.05Q-7.5-18.2-6.53-19.88-5.55-21.55-3.88-22.53-2.2-23.5-0.05-23.5L-0.05-23.5 28.15-23.5Q30.3-23.5 31.98-22.53 33.65-21.55 34.63-19.88 35.6-18.2 35.6-16.05L35.6-16.05 35.6-15.95Q35.6-13.8 34.63-12.13 33.65-10.45 31.98-9.47 30.3-8.5 28.15-8.5L28.15-8.5-0.05-8.5Q-2.2-8.5-3.88-9.47-5.55-10.45-6.53-12.13-7.5-13.8-7.5-15.95L-7.5-15.95ZM20.6-15.95L20.6-16.05Q20.6-18.2 21.57-19.88 22.55-21.55 24.22-22.53 25.9-23.5 28.05-23.5L28.05-23.5 56.25-23.5Q58.4-23.5 60.07-22.53 61.75-21.55 62.72-19.88 63.7-18.2 63.7-16.05L63.7-16.05 63.7-15.95Q63.7-13.8 62.72-12.13 61.75-10.45 60.07-9.47 58.4-8.5 56.25-8.5L56.25-8.5 28.05-8.5Q25.9-8.5 24.22-9.47 22.55-10.45 21.57-12.13 20.6-13.8 20.6-15.95L20.6-15.95ZM48.7-15.95L48.7-16.05Q48.7-18.2 49.67-19.88 50.65-21.55 52.32-22.53 54-23.5 56.15-23.5L56.15-23.5 84.35-23.5Q86.5-23.5 88.17-22.53 89.84-21.55 90.82-19.88 91.8-18.2 91.8-16.05L91.8-16.05 91.8-15.95Q91.8-13.8 90.82-12.13 89.84-10.45 88.17-9.47 86.5-8.5 84.35-8.5L84.35-8.5 56.15-8.5Q54-8.5 52.32-9.47 50.65-10.45 49.67-12.13 48.7-13.8 48.7-15.95L48.7-15.95Z" opacity="1" transform="matrix(1,0,0,1,0,0)" fill="#ffffff" class="wordmark-text-0" data-fill-palette-color="primary" id="text-0"></path></svg></g></svg></g></svg></g></svg></g><g transform="matrix(1,0,0,1,409.6246494743202,0)"><svg viewBox="0 0 82.7504748009653 82.56928096676737" height="82.56928096676737" width="82.7504748009653"><g><svg xmlns="http://www.w3.org/2000/svg" xmlns:xlink="http://www.w3.org/1999/xlink" version="1.1" x="0" y="0" viewBox="11.853790000000002 11.413979999999988 75.65167 75.48602000000002" enable-background="new 0 0 100 100" xml:space="preserve" height="82.56928096676737" width="82.7504748009653" class="icon-icon-0" data-fill-palette-color="accent" id="icon-0"><g fill="#fafafa" data-fill-palette-color="accent"><path fill="#fafafa" d="M81.5 26.9L82.9 25.6 73.6 16.3 72.3 17.6C71.3 18.6 60.3 29.5 48.2 41.7L23.7 17.3 16 24.7 40.5 49.2C27.5 62.2 15.1 74.5 14.1 75.6 11.5 78.3 11.7 81.5 13.1 83.5 13.9 84.7 15 85.5 15.1 85.6 15.3 85.7 16.8 86.8 18.8 86.8 20.4 86.8 21.9 86.2 23.2 85 24.1 84.2 36.6 71.7 49.8 58.6L78.1 86.9 85.7 79.3 57.4 51zM40 62.6V54.8C44 51 48 47 52 43.2V51C48 55 44 58.9 40 62.6M54 41.1C58 36.8 63 32.7 66 29.4V37.2C63 40.8 58 44.8 54 48.9zM73.5 21.7L77.4 25.6C75.6 27.4 72 30.7 68 34.9V27.1C70 24.7 72.3 22.8 73.5 21.7M20.7 24.8L23.6 22 45.7 44C44.7 44.9 43.8 45.9 42.8 46.9zM38 57V64.8C34 69.2 30 73.1 27 76.1V68.4C30 65.1 34 61.2 38 57M20.3 82.2C19.7 82.7 19.3 83 18.6 83 17.8 83 17.2 82.6 17.2 82.6S16.6 82.1 16.1 81.4C15.9 81.2 15 79.9 16.5 78.3 17 77.8 19.9 74.9 23.9 70.7V78.4C22 80.6 20.6 82 20.3 82.2M60.6 58.9L57.7 61.8 52.2 56.3 55.1 53.4z" data-fill-palette-color="accent"></path><rect x="13.1" y="18.4" transform="matrix(-0.7291 0.6844 -0.6844 -0.7291 44.878 21.0098)" fill="#fafafa" width="10.4" height="1.9" data-fill-palette-color="accent"></rect><rect x="15.3" y="11.9" transform="matrix(0.6844 0.7291 -0.7291 0.6844 17.6414 -6.4525)" fill="#fafafa" width="1.9" height="10.4" data-fill-palette-color="accent"></rect><rect x="73.5" y="18" transform="matrix(0.7052 0.709 -0.709 0.7052 37.0099 -51.1622)" fill="#fafafa" width="13" height="1.9" data-fill-palette-color="accent"></rect><rect x="81.3" y="10.2" transform="matrix(0.7091 -0.7052 0.7052 0.7091 12.1477 62.8538)" fill="#fafafa" width="1.9" height="13" data-fill-palette-color="accent"></rect></g></svg></g></svg></g></svg></g><defs></defs></svg><rect width="395.52" height="66.32707543063638" fill="none" stroke="none" visibility="hidden"></rect></g></svg></g></svg>